<svg width="128" height="128" fill="none" xmlns="http://www.w3.org/2000/svg"><path d="m117.888 59.012-48.9-48.9a7.2 7.2 0 0 0-10.2 0L48.632 20.268l12.88 12.88a8.565 8.565 0 0 1 10.848 10.92l12.4 12.4a8.572 8.572 0 1 1-5.14 4.84l-11.58-11.58v30.468a8.565 8.565 0 1 1-7.056-.248V49.2a8.584 8.584 0 0 1-4.66-11.256l-12.68-12.688L10.112 58.8a7.2 7.2 0 0 0 0 10.204l48.9 48.884a7.197 7.197 0 0 0 7.861 1.567 7.196 7.196 0 0 0 2.34-1.567L117.887 69.2a7.2 7.2 0 0 0 0-10.204" fill="#DD4C35"/><path d="m48.632 20.268 12.88 12.88a8.564 8.564 0 0 1 10.848 10.92l12.4 12.4a8.572 8.572 0 1 1-5.14 4.84l-11.58-11.58v30.468a8.564 8.564 0 1 1-7.056-.248V49.2a8.584 8.584 0 0 1-4.66-11.256l-12.68-12.688" fill="#fff"/></svg>