<svg width="128" height="128" fill="none" xmlns="http://www.w3.org/2000/svg"><g clip-path="url(#a)"><path d="M127.908 28.907c.048.17.072.345.072.522v27.427a1.99 1.99 0 0 1-1.036 1.735l-23.731 13.254v26.269c0 .352-.095.697-.276 1.001a2.035 2.035 0 0 1-.755.734l-49.538 27.662c-.114.062-.237.102-.361.145-.047.015-.09.042-.14.055-.346.089-.71.089-1.056 0-.057-.014-.108-.045-.162-.065-.114-.04-.232-.075-.34-.135L1.056 99.849a2.034 2.034 0 0 1-.758-.733 1.956 1.956 0 0 1-.278-1.002v-82.28a2 2 0 0 1 .072-.526c.016-.057.052-.11.073-.168.038-.104.074-.212.131-.31.038-.064.095-.117.141-.177.06-.08.114-.162.183-.233.06-.057.137-.1.204-.15.075-.06.142-.124.227-.172h.002L25.82.268a2.116 2.116 0 0 1 2.061 0l24.766 13.83h.005c.082.05.152.112.226.17.067.05.142.095.201.15.073.073.124.156.186.235.044.06.103.113.14.178.058.1.092.205.133.31.02.057.057.11.072.17.048.17.072.346.073.522v51.391l20.636-11.526V29.427c0-.175.026-.353.073-.52.018-.06.051-.113.072-.17.041-.105.077-.213.134-.31.038-.065.095-.118.14-.178.06-.08.112-.162.184-.232.06-.058.135-.1.202-.15.077-.06.144-.125.227-.173h.002l24.768-13.83a2.112 2.112 0 0 1 2.062 0l24.765 13.83c.087.05.154.113.232.17.064.05.139.095.198.15.072.073.124.155.185.235.047.06.104.113.14.178.059.097.093.205.134.31.023.057.057.11.072.17Zm-4.056 26.792V32.89l-8.667 4.84-11.973 6.686v22.808l20.642-11.526h-.002ZM99.087 96.957V74.133l-11.778 6.525-33.63 18.618v23.037l45.408-25.357ZM4.148 19.295v77.662l45.403 25.354V99.279L25.832 86.257l-.008-.004-.01-.005c-.08-.045-.147-.11-.221-.165-.065-.05-.14-.09-.196-.145l-.005-.008c-.067-.062-.114-.14-.17-.21-.052-.068-.114-.125-.155-.195l-.003-.007c-.046-.075-.075-.165-.108-.25-.034-.075-.077-.145-.098-.225v-.003c-.026-.095-.03-.195-.041-.292-.01-.075-.031-.15-.031-.225V30.822l-11.97-6.69-8.668-4.834v-.003ZM26.852 4.312 6.218 15.833l20.63 11.521 20.63-11.524-20.63-11.518h.004Zm10.73 71.902 11.971-6.684V19.295l-8.666 4.84-11.974 6.686v50.235l8.67-4.842Zm63.568-58.306-20.631 11.52L101.15 40.95l20.63-11.524-20.629-11.518h-.001Zm-2.064 26.51L87.113 37.73l-8.666-4.839V55.7l11.97 6.684 8.67 4.842V44.418ZM51.612 95.814l30.262-16.758 15.128-8.374-20.617-11.514-23.737 13.256-21.634 12.081 20.598 11.31Z" fill="#FF2D20"/></g><defs><clipPath id="a"><path fill="#fff" d="M0 0h128v128H0z"/></clipPath></defs></svg>