<svg width="128" height="128" fill="none" xmlns="http://www.w3.org/2000/svg"><path d="M64 119.999a8.592 8.592 0 0 1-4.304-1.152L46 110.739c-2.044-1.144-1.048-1.548-.372-1.784a27.277 27.277 0 0 0 6.196-2.8 1.056 1.056 0 0 1 1.02.076l10.524 6.252a1.356 1.356 0 0 0 1.272 0l41.04-23.688a1.292 1.292 0 0 0 .628-1.112V40.3a1.32 1.32 0 0 0-.636-1.132L64.632 15.5a1.292 1.292 0 0 0-1.268 0L22.348 39.176a1.32 1.32 0 0 0-.648 1.123v47.364a1.26 1.26 0 0 0 .644 1.097L33.6 95.255c6.1 3.049 9.836-.543 9.836-4.151V44.34a1.2 1.2 0 0 1 1.2-1.2h5.2a1.2 1.2 0 0 1 1.2 1.2v46.767c0 8.14-4.432 12.8-12.152 12.8a17.542 17.542 0 0 1-9.452-2.568l-10.788-6.188a8.663 8.663 0 0 1-4.304-7.487V40.3a8.648 8.648 0 0 1 4.304-7.5L59.688 9.103a8.984 8.984 0 0 1 8.624 0l41.04 23.697a8.664 8.664 0 0 1 4.308 7.48v47.383a8.68 8.68 0 0 1-4.308 7.489l-41.04 23.695A8.6 8.6 0 0 1 64 119.999Z" fill="#83CD29"/><path d="M56.216 71.812a1.2 1.2 0 0 1 1.2-1.2h5.308a1.2 1.2 0 0 1 1.18 1.004c.8 5.404 3.2 8.128 14.052 8.128 8.644 0 12.328-1.956 12.328-6.544 0-2.644-1.044-4.608-14.48-5.924-11.232-1.112-18.176-3.6-18.176-12.576 0-8.28 6.98-13.22 18.68-13.22 13.148 0 19.656 4.564 20.48 14.356a1.2 1.2 0 0 1-1.18 1.292h-5.344a1.2 1.2 0 0 1-1.152-.928c-1.276-5.684-4.4-7.5-12.8-7.5-9.44 0-10.536 3.288-10.536 5.752 0 2.984 1.296 3.856 14.04 5.54C92.428 61.66 98.42 64.02 98.42 72.884c0 8.944-7.456 14.064-20.46 14.064-17.98.024-21.744-8.22-21.744-15.136Z" fill="#83CD29"/></svg>