<svg width="128" height="128" fill="none" xmlns="http://www.w3.org/2000/svg"><g clip-path="url(#a)"><path d="M64 93.46c30.928 0 56-13.19 56-29.46 0-16.27-25.072-29.46-56-29.46S8 47.73 8 64c0 16.27 25.072 29.46 56 29.46Z" fill="url(#b)"/><path d="M64 91.272c29.72 0 53.812-12.21 53.812-27.272 0-15.062-24.092-27.272-53.812-27.272S10.188 48.938 10.188 64c0 15.062 24.093 27.272 53.812 27.272Z" fill="#6280B6"/><path d="m74.9 72.8 2.668-13.736a7.008 7.008 0 0 0-1.488-6.876 11.716 11.716 0 0 0-8-2.1h-4.612l1.324-6.8a.874.874 0 0 0-.86-1.04h-6.4a.877.877 0 0 0-.86.708L53.836 57.54a8.204 8.204 0 0 0-1.908-4.216 11.132 11.132 0 0 0-8.8-3.228H30.8a.877.877 0 0 0-.86.708l-5.736 29.52a.876.876 0 0 0 .86 1.04h6.412a.876.876 0 0 0 .86-.708l1.388-7.14h4.8c2.12.056 4.235-.213 6.272-.8a12.27 12.27 0 0 0 4.6-2.756 14.15 14.15 0 0 0 2.72-3.376l-1.148 5.9a.876.876 0 0 0 .86 1.04h6.4a.876.876 0 0 0 .86-.708l3.148-16.204h4.376c1.864 0 2.4.372 2.56.532.16.16.4.66.1 2.276l-2.54 13.06a.876.876 0 0 0 .86 1.04h6.48a.876.876 0 0 0 .828-.72ZM45.32 61.464a6.996 6.996 0 0 1-2.244 4.368 8.684 8.684 0 0 1-5.26 1.284h-2.848l2.06-10.604h3.684c2.708 0 3.796.58 4.236 1.064a4.724 4.724 0 0 1 .372 3.888ZM102.184 53.328a11.133 11.133 0 0 0-8.8-3.228H81.02a.876.876 0 0 0-.86.708l-5.736 29.52a.874.874 0 0 0 .86 1.04h6.432a.877.877 0 0 0 .86-.708l1.388-7.14h4.8a20.67 20.67 0 0 0 6.272-.8 12.274 12.274 0 0 0 4.6-2.756 13.701 13.701 0 0 0 4.304-7.708 10.055 10.055 0 0 0-1.756-8.928Zm-6.668 8.136a6.997 6.997 0 0 1-2.244 4.368A8.684 8.684 0 0 1 88 67.112h-2.84l2.06-10.604h3.684c2.708 0 3.796.58 4.236 1.064a4.724 4.724 0 0 1 .376 3.892Z" fill="#fff"/><path d="M40.712 55.632a6.58 6.58 0 0 1 4.884 1.352 5.358 5.358 0 0 1 .58 4.644 7.78 7.78 0 0 1-2.568 4.892A9.444 9.444 0 0 1 37.816 68h-3.912l2.4-12.356 4.408-.012ZM25.044 80.496h6.432L33 72.648h5.508a19.726 19.726 0 0 0 6-.764 11.36 11.36 0 0 0 4.28-2.568 12.828 12.828 0 0 0 4.04-7.232 9.199 9.199 0 0 0-1.54-8.176 10.272 10.272 0 0 0-8.14-2.928H30.8l-5.756 29.516ZM57.548 43.128h6.4L62.4 50.976h5.684c2.61-.273 5.233.39 7.4 1.872a6.193 6.193 0 0 1 1.22 6.064l-2.668 13.736H67.56l2.54-13.06a3.544 3.544 0 0 0-.32-3.04 4.484 4.484 0 0 0-3.2-.8h-5.1L58.192 72.66h-6.4l5.756-29.532ZM90.908 55.632a6.58 6.58 0 0 1 4.884 1.352 5.36 5.36 0 0 1 .58 4.644 7.78 7.78 0 0 1-2.568 4.892A9.444 9.444 0 0 1 88 68h-3.912l2.4-12.356 4.42-.012ZM75.24 80.496h6.432l1.524-7.848h5.508a19.726 19.726 0 0 0 6-.764 11.36 11.36 0 0 0 4.28-2.568 12.832 12.832 0 0 0 4.04-7.232 9.19 9.19 0 0 0-1.54-8.176 10.27 10.27 0 0 0-8.14-2.928H80.976L75.24 80.496Z" fill="#000004"/><g clip-path="url(#c)"><path d="M7751.4 1264.2c-745.83 4.21-1391.66 183.33-1933.33 450.04-200-395.83-400-741.707-433.29-999.998-37.5-300-83.34-483.375-37.5-841.667C5393.07-485.8 5601.4-994.134 5601.4-1035.8c-4.21-37.5-45.87-220.83-475-225-429.12-4.17-800 83.33-841.67 195.83-41.66 112.503-124.99 370.836-179.16 637.503C4030.57-35.8 3247.23 1351.7 2801.4 2080.87c-145.83-283.34-270.83-533.34-295.87-733.38-37.46-299.96-83.34-483.332-37.46-841.624 45.83-358.375 254.16-866.666 254.16-908.333-4.16-37.5-45.83-220.833-474.95-225-429.21-4.167-800 83.333-841.67 195.833-41.67 112.5-87.5 379.167-179.17 637.5C1138.9 464.2 97.234 2780.87-173.599 3385.03c-137.5 308.34-258.292 554.17-345.833 720.84-87.5 166.66-4.167 12.5-12.5 29.16-75 141.67-116.667 220.84-116.667 220.84v4.21c-58.333 104.16-120.833 204.12-150.042 204.12-20.833 0-62.5-279.17 8.333-662.46 154.167-804.21 529.167-2058.33 525.042-2104.17 0-20.83 70.792-241.7-241.708-354.16-304.167-112.5-412.458 75-437.5 75-25 0-45.834 66.66-45.834 66.66s337.5-1412.454-645.832-1412.454c-616.67 0-1466.67 670.834-1887.5 1283.334-266.67 145.83-833.33 454.12-1433.33 783.33-229.17 125-466.67 258.34-691.67 379.17l-45.79-50.08C-6886.1 1297.53-9090.27 397.533-8998.6-1310.8c33.33-620.83 250-2258.33 4233.38-4241.67 3262.5-1625 5875-1179.16 6329.12-187.5 645.83 1416.67-1395.832 4050-4787.46 4429.17-1291.66 145.83-1970.87-354.17-2141.66-541.67-179.17-195.83-204.17-204.16-270.84-166.66-108.33 58.33-41.66 233.33 0 337.5 100 262.5 516.67 729.163 1225 962.496 620.79 204.167 2137.5 316.667 3970.836-391.666 2054.164-795.83 3658.334-3004.17 3187.504-4850-479.17-1879.17-3595.837-2495.83-6541.67-1450-1754.21 625-3654.21 1600-5020.88 2879.17-1625.03 1516.66-1883.33 2841.66-1775.03 3391.66 379.2 1962.503 3083.37 3241.67 4166.7 4187.5-54.17 29.13-104.17 58.3-150 83.34-541.67 266.62-2604.17 1345.83-3120.83 2487.46-583.37 1291.66 91.66 2220.87 541.66 2345.87 1391.67 387.5 2816.67-308.33 3587.5-1454.17 766.63-1145.83 675-2633.33 320.84-3312.5l-12.54-25 425-250c275.04-162.5 545.87-312.5 783.33-441.71-133.29 362.5-229.17 791.67-279.13 1416.67-58.33 733.38 241.67 1683.34 637.5 2058.34 175 162.45 383.34 166.66 512.5 166.66 458.34 0 666.67-379.21 895.84-833.33 283.33-554.17 533.33-1195.83 533.33-1195.83s-312.5 1737.5 541.67 1737.5c312.498 0 624.998-404.17 766.664-612.5v4.16s8.334-12.5 25-41.66a1503.616 1503.616 0 0 0 50-79.13v-8.33c125-216.67 404.167-712.5 820.834-1533.34C993.026 2501.7 1509.73 1176.7 1509.73 1176.7s50 325 204.17 858.33c91.63 316.71 291.63 662.5 445.79 1000-125 175-200 275.05-200 275.05l4.17 4.16c-99.96 133.34-212.5 275.04-329.13 416.67-425 508.33-933.329 1087.54-999.996 1254.21-79.167 195.79-62.5 341.62 91.667 458.33 112.5 83.33 312.499 99.96 524.999 83.33 383.33-25.04 650-120.83 783.33-179.2 208.34-75 445.84-187.5 675-354.17 416.67-308.29 670.84-745.79 645.84-1329.13-12.5-320.83-116.67-637.5-245.83-937.5 37.5-54.16 75.04-108.37 112.49-166.66C3880.57 1597.57 4388.9 539.283 4388.9 539.283s50 325 204.17 858.337c79.12 270.83 237.5 566.7 379.16 858.37-616.66 504.17-1004.16 1087.5-1137.5 1470.84-245.83 708.33-54.16 1029.16 308.34 1104.16 162.46 33.34 395.83-41.66 570.79-116.66 216.67-70.84 479.17-191.71 720.87-370.84 416.67-308.33 816.67-737.5 795.84-1316.66-12.5-266.67-83.34-529.17-179.17-779.17 525-216.67 1204.13-341.67 2066.67-237.5 1854.17 216.67 2220.83 1375 2150.03 1858.33-70.8 483.38-458.32 750-587.53 833.34-129.17 79.16-170.83 108.37-158.33 166.66 16.66 87.54 75 83.34 187.5 66.71 154.16-25.04 974.96-395.83 1008.36-1287.46 50-1146-1037.53-2396-2966.7-2383.54Zm-14300 4820.83c-612.5 670.84-1475 925-1841.67 708.34-395.83-229.17-241.71-1216.67 512.5-1929.17 458.34-433.33 1054.17-833.33 1445.84-1079.17 87.5-54.16 220.83-133.29 379.16-229.16 25-16.63 41.67-25 41.67-25 29.17-16.67 62.5-37.5 95.83-58.34 279.17 1016.67 12.5 1908.34-633.33 2612.5Zm4479.17-3045.83c-212.5 520.83-662.5 1858.33-933.34 1783.33-233.37-62.5-375-1075-45.87-2075 166.67-504.2 520.83-1104.16 729.17-1337.54 337.54-375 704.16-499.999 795.87-345.83 108.33 200.04-412.5 1650.04-545.83 1975.04ZM1626.4 4805.87c-91.67 45.87-175 79.16-212.5 54.21-29.17-16.67 37.46-79.17 37.46-79.17s462.5-495.83 645.83-725c104.17-133.29 229.17-287.46 362.5-462.5v50c.04 599.96-574.96 999.96-833.29 1162.46Zm2849.96-650c-66.67-50-58.29-204.17 166.67-687.5 87.54-191.67 287.5-512.5 633.33-816.67 41.67 125 66.71 245.79 62.5 358.33-4.12 750-537.46 1029.17-862.5 1145.84Z" fill="#CF649A"/></g></g><defs><clipPath id="a"><path fill="#fff" d="M0 0h128v128H0z"/></clipPath><clipPath id="c"><path fill="#fff" transform="translate(-10606.9 -7927.47)" d="M0 0h21333.3v16000H0z"/></clipPath><radialGradient id="b" cx="0" cy="0" r="1" gradientUnits="userSpaceOnUse" gradientTransform="translate(41.624 44.9) scale(73.536)"><stop stop-color="#fff"/><stop offset=".5" stop-color="#4C6B96"/><stop offset="1" stop-color="#231F20"/></radialGradient></defs></svg>