<svg width="128" height="128" fill="none" xmlns="http://www.w3.org/2000/svg"><path d="M64.684 74.8c-1.924.884-4.032 2.036-8.252 4.352-1.6.9-3.272 1.8-4.828 2.648-.108-.108-.22-.244-.328-.356-8.348-8.92-23.788-15.22-23.132-27.2.244-4.364 1.744-15.82 29.652-29.732 22.968-11.32 41.244-8.184 44.4-1.228C106.732 33.2 92.4 51.652 68.68 54.328a17.877 17.877 0 0 1-15.004-3.792c-1.256-1.364-1.444-1.444-1.908-1.172-.764.4-.272 1.636 0 2.344a14 14 0 0 0 8.564 6.736 45.6 45.6 0 0 0 27.824-2.756c14.376-5.564 25.6-21.032 22.312-34-3.3-13.148-25.124-17.484-45.772-10.148a104.001 104.001 0 0 0-35.16 20.188c-11.376 10.64-13.176 19.888-12.44 23.76 2.648 13.748 21.6 22.696 29.2 29.324-.4.22-.736.4-1.036.572-3.792 1.884-18.248 9.44-21.852 17.432-4.092 9.056.656 15.548 3.792 16.42a23.324 23.324 0 0 0 25.124-10.176 25.2 25.2 0 0 0 2.236-23.2 20.126 20.126 0 0 1 2.864-1.908c1.936-1.144 3.78-2.272 5.416-3.144a41.902 41.902 0 0 1 17.9-3.956c12.984 1.528 15.548 9.628 15.056 13.04a8.63 8.63 0 0 1-4.12 5.836c-.9.572-1.2.764-1.12 1.172.108.6.544.572 1.308.464a10.139 10.139 0 0 0 7.064-9.028c.4-8-7.228-16.776-20.732-16.696a31.013 31.013 0 0 0-11.784 2.348c-.6.248-1.183.514-1.748.8l.02.012Zm-19.3 31.356c-4.312 4.692-10.312 6.464-12.904 4.964-2.8-1.6-1.692-8.54 3.6-13.504A68.724 68.724 0 0 1 46.2 90.06c.628-.4 1.556-.928 2.672-1.6l.3-.164.656-.4a18.632 18.632 0 0 1-4.444 18.26Z" fill="#CD6799"/></svg>