<svg width="128" height="128" viewBox="0 0 128 128" fill="none" xmlns="http://www.w3.org/2000/svg">
<rect x="5" y="4" width="24" height="26" fill="white"/>
<path d="M0 64C0 115.617 12.3835 128 64 128C115.617 128 128 115.617 128 64C128 12.3835 115.617 0 64 0C12.3835 0 0 12.3835 0 64ZM43.4065 104.146C28.659 104.215 20.4115 90.569 25.8083 77.292L45.8845 31.6733C50.817 17.6477 73.77 13.8337 82.119 31.6733L102.191 77.292C107.62 90.4115 99.402 104.306 84.5935 104.146C79.6955 104.488 69.99 99.7538 63.985 100.129C55.8575 100.038 50.3175 104.351 43.4065 104.146V104.146ZM83.552 84.4642L64 39.6247L44.1857 84.4642C56.0687 79.2177 71.1858 78.9012 83.552 84.4642Z" fill="black"/>
</svg>
