<svg width="128" height="128" fill="none" xmlns="http://www.w3.org/2000/svg"><path fill="#fff" d="M19 16h90v93H19z"/><path d="M0 64c0 51.617 12.383 64 64 64 51.617 0 64-12.383 64-64 0-51.617-12.383-64-64-64C12.383 0 0 12.383 0 64Zm43.407 40.146c-14.748.069-22.995-13.577-17.599-26.854l20.077-45.619c4.932-14.025 27.885-17.84 36.234 0l20.072 45.619c5.429 13.12-2.789 27.014-17.597 26.854-4.898.342-14.604-4.392-20.609-4.017-8.127-.091-13.667 4.222-20.578 4.017Zm40.145-19.682L64 39.624l-19.814 44.84c11.883-5.246 27-5.563 39.366 0Z" fill="#000"/></svg>