<svg width="128" height="128" viewBox="0 0 128 128" fill="none" xmlns="http://www.w3.org/2000/svg">
<path d="M117.888 59.0119L68.9881 10.1119C68.3192 9.44071 67.5244 8.90812 66.6492 8.54472C65.774 8.18133 64.8357 7.99426 63.8881 7.99426C62.9405 7.99426 62.0022 8.18133 61.127 8.54472C60.2519 8.90812 59.457 9.44071 58.7881 10.1119L48.6321 20.2679L61.5121 33.1479C63.0309 32.6311 64.6644 32.5512 66.2264 32.9175C67.7884 33.2838 69.2161 34.0815 70.3468 35.2197C71.4775 36.3579 72.2658 37.7909 72.6217 39.3553C72.9777 40.9196 72.887 42.5526 72.3601 44.0679L84.7601 56.4679C86.6136 55.8312 88.6294 55.8488 90.4714 56.5178C92.3135 57.1869 93.8707 58.467 94.8836 60.1448C95.8965 61.8226 96.3038 63.7968 96.0378 65.7385C95.7718 67.6802 94.8484 69.4721 93.4216 70.8156C91.9948 72.1591 90.1507 72.9732 88.1965 73.1221C86.2423 73.271 84.2962 72.7458 82.6822 71.634C81.0683 70.5222 79.8841 68.8909 79.3269 67.012C78.7697 65.133 78.8732 63.1198 79.6201 61.3079L68.0401 49.7279V80.1959C69.7943 81.0651 71.1977 82.509 72.0167 84.2871C72.8356 86.0653 73.0207 88.0703 72.5409 89.9683C72.0612 91.8663 70.9457 93.5426 69.3802 94.7181C67.8147 95.8935 65.8937 96.4972 63.9372 96.4284C61.9808 96.3596 60.1069 95.6226 58.6278 94.3402C57.1487 93.0577 56.1536 91.3072 55.8083 89.3802C55.463 87.4532 55.7884 85.4661 56.7301 83.7498C57.6719 82.0336 59.1733 80.6918 60.9841 79.9479V49.1999C59.9365 48.7701 58.9843 48.1372 58.1823 47.3378C57.3803 46.5384 56.7444 45.5881 56.3112 44.5419C55.8781 43.4956 55.6562 42.374 55.6584 41.2416C55.6607 40.1093 55.8869 38.9885 56.3241 37.9439L43.6441 25.2559L10.1121 58.7999C9.44029 59.4689 8.90719 60.264 8.54344 61.1395C8.17968 62.0151 7.99243 62.9538 7.99243 63.9019C7.99243 64.85 8.17968 65.7888 8.54344 66.6643C8.90719 67.5399 9.44029 68.335 10.1121 69.0039L59.0121 117.888C59.681 118.559 60.4759 119.092 61.351 119.455C62.2262 119.819 63.1645 120.006 64.1121 120.006C65.0597 120.006 65.998 119.819 66.8732 119.455C67.7484 119.092 68.5432 118.559 69.2121 117.888L117.888 69.1999C118.56 68.531 119.093 67.7359 119.457 66.8603C119.821 65.9848 120.008 65.046 120.008 64.0979C120.008 63.1498 119.821 62.2111 119.457 61.3355C119.093 60.46 118.56 59.6649 117.888 58.9959" fill="#DD4C35"/>
<path d="M48.632 20.2682L61.512 33.1482C63.0308 32.6313 64.6643 32.5515 66.2263 32.9178C67.7883 33.2841 69.216 34.0818 70.3467 35.22C71.4774 36.3582 72.2657 37.7911 72.6216 39.3555C72.9776 40.9199 72.8869 42.5528 72.36 44.0682L84.76 56.4682C86.6135 55.8314 88.6293 55.8491 90.4714 56.5181C92.3134 57.1871 93.8707 58.4672 94.8835 60.145C95.8964 61.8228 96.3038 63.797 96.0377 65.7387C95.7717 67.6804 94.8483 69.4723 93.4215 70.8158C91.9947 72.1594 90.1506 72.9734 88.1964 73.1224C86.2422 73.2713 84.2961 72.7461 82.6821 71.6343C81.0682 70.5224 79.884 68.8912 79.3268 67.0122C78.7696 65.1332 78.8731 63.1201 79.62 61.3082L68.04 49.7282V80.1962C69.7942 81.0653 71.1976 82.5092 72.0166 84.2874C72.8355 86.0655 73.0206 88.0706 72.5408 89.9686C72.0611 91.8665 70.9456 93.5429 69.3801 94.7183C67.8146 95.8938 65.8936 96.4974 63.9371 96.4286C61.9807 96.3599 60.1068 95.6229 58.6277 94.3404C57.1486 93.0579 56.1535 91.3074 55.8082 89.3804C55.4629 87.4535 55.7882 85.4663 56.73 83.7501C57.6718 82.0338 59.1732 80.692 60.984 79.9482V49.2002C59.9364 48.7704 58.9842 48.1375 58.1822 47.3381C57.3802 46.5386 56.7443 45.5884 56.3111 44.5421C55.878 43.4959 55.6561 42.3743 55.6583 41.2419C55.6605 40.1095 55.8868 38.9887 56.324 37.9442L43.644 25.2562" fill="white"/>
</svg>
