<svg width="128" height="128" viewBox="0 0 128 128" fill="none" xmlns="http://www.w3.org/2000/svg">
<g clip-path="url(#clip0)">
<path d="M127.908 28.9067C127.956 29.0769 127.98 29.2524 127.98 29.4289V56.8558C127.98 57.5724 127.585 58.2342 126.944 58.5906L103.213 71.8449V98.114C103.213 98.4655 103.118 98.8108 102.937 99.1154C102.756 99.42 102.496 99.673 102.182 99.8493L52.6436 127.511C52.5301 127.573 52.4067 127.613 52.2827 127.656C52.2362 127.671 52.1927 127.698 52.1438 127.711C51.7974 127.8 51.4334 127.8 51.0871 127.711C51.0301 127.697 50.9786 127.666 50.9246 127.646C50.8112 127.606 50.6927 127.571 50.5848 127.511L1.05623 99.8488C0.741496 99.6735 0.479977 99.4209 0.298053 99.1163C0.11613 98.8117 0.0202377 98.466 0.02005 98.114L0.02005 15.8333C0.02005 15.6529 0.0460419 15.4779 0.0920276 15.3082C0.107523 15.2505 0.143511 15.1981 0.164505 15.1404C0.202993 15.0357 0.239481 14.928 0.295964 14.8306C0.334452 14.7656 0.390934 14.7133 0.43742 14.6531C0.496901 14.5731 0.550884 14.4907 0.620362 14.4204C0.679844 14.3632 0.75732 14.3205 0.824299 14.2706C0.899275 14.2105 0.965755 14.1455 1.05073 14.098H1.05323L25.8185 0.267201C26.1321 0.092138 26.4876 0 26.8494 0C27.2112 0 27.5667 0.092138 27.8803 0.267201L52.6456 14.098H52.6506C52.7331 14.1484 52.8031 14.2105 52.8775 14.2682C52.9445 14.3181 53.0195 14.3632 53.0785 14.4185C53.151 14.4907 53.2024 14.5736 53.2639 14.6531C53.3079 14.7133 53.3674 14.7656 53.4034 14.8306C53.4624 14.9305 53.4958 15.0357 53.5373 15.1409C53.5578 15.1981 53.5938 15.2505 53.6093 15.3106C53.6568 15.4808 53.6813 15.6568 53.6818 15.8333V67.2243L74.3183 55.698V29.4265C74.3183 29.2519 74.3443 29.074 74.3908 28.9067C74.4088 28.8466 74.4423 28.7942 74.4628 28.737C74.5043 28.6318 74.5403 28.5237 74.5967 28.4267C74.6352 28.3617 74.6917 28.3094 74.7362 28.2493C74.7977 28.1693 74.8492 28.0868 74.9211 28.0165C74.9811 27.9593 75.0556 27.9167 75.1226 27.8667C75.2001 27.8066 75.267 27.7416 75.3495 27.6941H75.352L100.12 13.8633C100.433 13.688 100.789 13.5957 101.151 13.5957C101.513 13.5957 101.868 13.688 102.182 13.8633L126.947 27.6941C127.034 27.744 127.101 27.8066 127.179 27.8638C127.243 27.9142 127.318 27.9593 127.377 28.0141C127.449 28.0868 127.501 28.1693 127.562 28.2493C127.609 28.3094 127.666 28.3617 127.702 28.4267C127.761 28.5237 127.795 28.6318 127.836 28.737C127.859 28.7942 127.893 28.8466 127.908 28.9067V28.9067ZM123.852 55.6985V32.8912L115.185 37.7305L103.212 44.4175V67.2248L123.854 55.6985H123.852V55.6985ZM99.0866 96.9567V74.1334L87.3093 80.658L53.6793 99.2762V122.313L99.0866 96.9557V96.9567ZM4.14826 19.2951V96.9567L49.5506 122.311V99.2786L25.832 86.2575L25.8245 86.2527L25.8145 86.2478C25.7345 86.2027 25.667 86.1377 25.5926 86.083C25.5276 86.0325 25.4531 85.9928 25.3966 85.9375L25.3916 85.9302C25.3246 85.8677 25.2782 85.7901 25.2217 85.7203C25.1697 85.6524 25.1082 85.5952 25.0667 85.5254L25.0642 85.5176C25.0177 85.443 24.9892 85.3528 24.9558 85.2679C24.9223 85.1928 24.8788 85.1225 24.8578 85.043V85.0405C24.8323 84.9455 24.8273 84.8451 24.8168 84.7477C24.8068 84.673 24.7858 84.5979 24.7858 84.5227V30.8219L12.8151 24.1319L4.14826 19.298V19.2951ZM26.8522 4.31181L6.21761 15.8333L26.8472 27.3542L47.4787 15.8304L26.8472 4.31181H26.8522ZM37.5828 76.2139L49.5531 69.5297V19.2951L40.8873 24.1348L28.9135 30.8214V81.0556L37.5828 76.2139V76.2139ZM101.15 17.9079L80.5189 29.4289L101.15 40.9503L121.78 29.4265L101.151 17.9079H101.15ZM99.0861 44.4175L87.1133 37.7305L78.447 32.8912V55.6985L90.4173 62.3831L99.0866 67.2248V44.4175H99.0861ZM51.6124 95.8144L81.8745 79.056L97.0018 70.6817L76.3852 59.168L52.6481 72.4238L31.0139 84.5053L51.6124 95.8144Z" fill="#FF2D20"/>
</g>
<defs>
<clipPath id="clip0">
<rect width="128" height="128" fill="white"/>
</clipPath>
</defs>
</svg>
