<svg width="128" height="128" fill="none" xmlns="http://www.w3.org/2000/svg"><g clip-path="url(#a)"><rect x="33.882" y="18.823" width="64" height="101.647" rx="5" fill="#fff"/><path d="M94.996 120.02c-.476.252-.436.332.02.1.14-.057.27-.14.38-.244 0-.084 0-.084-.4.144Zm.96-.52c-.228.188-.228.188.044.064.1-.047.192-.111.272-.188 0-.108-.064-.084-.316.124Zm.624-.376c-.228.188-.228.188.044.064a.982.982 0 0 0 .272-.192c0-.1-.064-.08-.316.128Zm.632-.372c-.228.188-.228.188.036.06.148-.08.272-.164.272-.188 0-.1-.064-.08-.308.128Zm.852-.564c-.436.292-.588.48-.188.272.268-.164.724-.524.644-.524-.172.064-.316.172-.46.252h.004ZM59.812.044c-.292.02-1.168.1-1.936.164-18.192 1.648-35.212 11.44-46 26.524A63.312 63.312 0 0 0 .58 54.688C.064 58.208 0 59.248 0 64.02c0 4.768.064 5.792.58 9.312 3.484 24.044 20.588 44.228 43.772 51.708 4.172 1.332 8.544 2.252 13.524 2.816 1.936.208 10.308.208 12.244 0 8.608-.96 15.876-3.084 23.068-6.752 1.104-.56 1.312-.708 1.164-.832a1369.462 1369.462 0 0 1-10.436-13.98L73.688 92.48 60.876 73.5A1665.57 1665.57 0 0 0 47.96 54.524c-.044 0-.1 8.436-.124 18.724-.044 18.02-.044 18.752-.272 19.168-.219.503-.61.91-1.104 1.148-.396.188-.752.228-2.644.228h-2.164l-.564-.352a2.38 2.38 0 0 1-.832-.916l-.272-.564.02-25.084.044-25.084.396-.5c.253-.307.564-.562.916-.748.524-.252.732-.292 2.896-.292 2.54 0 2.96.1 3.628.832 5.19 7.72 10.335 15.469 15.436 23.248a55328.648 55328.648 0 0 0 25.248 38.252l10.148 15.356.5-.332a65.364 65.364 0 0 0 13.14-11.54 63.738 63.738 0 0 0 15.068-32.708c.516-3.52.58-4.564.58-9.332 0-4.772-.064-5.792-.58-9.312-3.484-24.044-20.588-44.228-43.772-51.712A67.932 67.932 0 0 0 70.34.216C69.128.092 60.856-.056 59.816.052l-.004-.008ZM86 38.752a2.491 2.491 0 0 1 1.268 1.456c.108.336.128 7.292.108 22.96l-.044 22.496-3.956-6.08-3.98-6.084V57.168c0-10.588.044-16.524.1-16.816a2.68 2.68 0 0 1 1.252-1.58c.496-.252.688-.272 2.668-.272 1.852 0 2.164.02 2.58.252H86Z" fill="#000"/></g><defs><clipPath id="a"><path fill="#fff" d="M0 0h128v128H0z"/></clipPath></defs></svg>