<svg width="128" height="128" viewBox="0 0 128 128" fill="none" xmlns="http://www.w3.org/2000/svg">
<g clip-path="url(#clip0)">
<rect x="33.8823" y="18.8235" width="64" height="101.647" rx="5" fill="white"/>
<path d="M94.996 120.02C94.52 120.272 94.56 120.352 95.016 120.12C95.1565 120.063 95.2853 119.98 95.396 119.876C95.396 119.792 95.396 119.792 94.996 120.02V120.02ZM95.956 119.5C95.728 119.688 95.728 119.688 96 119.564C96.1005 119.517 96.1924 119.453 96.272 119.376C96.272 119.268 96.208 119.292 95.956 119.5V119.5ZM96.58 119.124C96.352 119.312 96.352 119.312 96.624 119.188C96.7249 119.14 96.8169 119.075 96.896 118.996C96.896 118.896 96.832 118.916 96.58 119.124ZM97.212 118.752C96.984 118.94 96.984 118.94 97.248 118.812C97.396 118.732 97.52 118.648 97.52 118.624C97.52 118.524 97.456 118.544 97.212 118.752ZM98.064 118.188C97.628 118.48 97.476 118.668 97.876 118.46C98.144 118.296 98.6 117.936 98.52 117.936C98.348 118 98.204 118.108 98.06 118.188H98.064ZM59.812 0.0440486C59.52 0.0640485 58.644 0.144049 57.876 0.208049C39.684 1.85605 22.664 11.648 11.876 26.732C5.91426 35.005 2.03903 44.5957 0.58 54.688C0.064 58.208 0 59.248 0 64.02C0 68.788 0.064 69.812 0.58 73.332C4.064 97.376 21.168 117.56 44.352 125.04C48.524 126.372 52.896 127.292 57.876 127.856C59.812 128.064 68.184 128.064 70.12 127.856C78.728 126.896 85.996 124.772 93.188 121.104C94.292 120.544 94.5 120.396 94.352 120.272C90.8436 115.634 87.3648 110.974 83.916 106.292L73.688 92.48L60.876 73.5C56.6143 67.1451 52.3089 60.8196 47.96 54.524C47.916 54.524 47.86 62.96 47.836 73.248C47.792 91.268 47.792 92 47.564 92.416C47.3454 92.9186 46.9536 93.3259 46.46 93.564C46.064 93.752 45.708 93.792 43.816 93.792H41.652L41.088 93.44C40.7348 93.2134 40.4477 92.8974 40.256 92.524L39.984 91.96L40.004 66.876L40.048 41.792L40.444 41.292C40.6969 40.9846 41.0082 40.7304 41.36 40.544C41.884 40.292 42.092 40.252 44.256 40.252C46.796 40.252 47.216 40.352 47.884 41.084C53.0741 48.8035 58.2195 56.553 63.32 64.332C71.636 76.94 82.988 94.144 88.568 102.584L98.716 117.94L99.216 117.608C104.093 114.367 108.513 110.486 112.356 106.068C120.418 96.8404 125.65 85.4844 127.424 73.36C127.94 69.84 128.004 68.796 128.004 64.028C128.004 59.256 127.94 58.236 127.424 54.716C123.94 30.672 106.836 10.488 83.652 3.00405C79.3191 1.63173 74.8594 0.697719 70.34 0.216049C69.128 0.0920486 60.856 -0.0559514 59.816 0.0520486L59.812 0.0440486ZM86 38.752C86.2976 38.8982 86.563 39.1022 86.7807 39.3523C86.9985 39.6023 87.1641 39.8932 87.268 40.208C87.376 40.544 87.396 47.5 87.376 63.168L87.332 85.664L83.376 79.584L79.396 73.5V57.168C79.396 46.58 79.44 40.644 79.496 40.352C79.6918 39.6825 80.1409 39.1157 80.748 38.772C81.244 38.52 81.436 38.5 83.416 38.5C85.268 38.5 85.58 38.52 85.996 38.752H86Z" fill="black"/>
</g>
<defs>
<clipPath id="clip0">
<rect width="128" height="128" fill="white"/>
</clipPath>
</defs>
</svg>
