<svg width="128" height="128" viewBox="0 0 128 128" fill="none" xmlns="http://www.w3.org/2000/svg">
<path d="M63.9999 119.999C62.4889 120 61.0045 119.603 59.6959 118.847L45.9999 110.739C43.9559 109.595 44.9519 109.191 45.6279 108.955C47.8018 108.284 49.8832 107.343 51.8239 106.155C51.9863 106.08 52.1652 106.048 52.3437 106.061C52.5222 106.074 52.6944 106.133 52.8439 106.231L63.3679 112.483C63.5638 112.587 63.7822 112.641 64.0039 112.641C64.2256 112.641 64.4439 112.587 64.6399 112.483L105.68 88.7955C105.872 88.6804 106.031 88.5174 106.141 88.3225C106.251 88.1276 106.309 87.9074 106.308 87.6835V40.2995C106.308 40.0721 106.25 39.8484 106.138 39.6502C106.027 39.4519 105.866 39.2857 105.672 39.1675L64.6319 15.4995C64.4383 15.3905 64.22 15.3332 63.9979 15.3332C63.7758 15.3332 63.5574 15.3905 63.3639 15.4995L22.3479 39.1755C22.1522 39.2912 21.9898 39.4555 21.8762 39.6524C21.7627 39.8493 21.702 40.0722 21.6999 40.2995V87.6635C21.7004 87.8869 21.7604 88.1061 21.8735 88.2987C21.9867 88.4912 22.149 88.6503 22.3439 88.7595L33.5999 95.2555C39.6999 98.3035 43.4359 94.7115 43.4359 91.1035V44.3395C43.4359 44.0212 43.5623 43.716 43.7873 43.491C44.0124 43.2659 44.3176 43.1395 44.6359 43.1395H49.8359C50.1541 43.1395 50.4594 43.2659 50.6844 43.491C50.9094 43.716 51.0359 44.0212 51.0359 44.3395V91.1075C51.0359 99.2475 46.6039 103.907 38.8839 103.907C35.5534 103.966 32.2751 103.075 29.4319 101.339L18.6439 95.1515C17.3342 94.3888 16.2475 93.296 15.4923 91.982C14.7371 90.6681 14.3397 89.179 14.3399 87.6635V40.2995C14.336 38.7816 14.7317 37.2894 15.4872 35.9729C16.2427 34.6564 17.3314 33.5619 18.6439 32.7995L59.6879 9.10348C61.01 8.38015 62.4928 8.00104 63.9999 8.00104C65.5069 8.00104 66.9898 8.38015 68.3119 9.10348L109.352 32.7995C110.661 33.5607 111.748 34.652 112.504 35.9645C113.26 37.277 113.659 38.7648 113.66 40.2795V87.6635C113.658 89.179 113.259 90.6676 112.503 91.9812C111.747 93.2948 110.661 94.3878 109.352 95.1515L68.3119 118.847C67.0008 119.604 65.5135 120.001 63.9999 119.999V119.999Z" fill="#83CD29"/>
<path d="M56.2159 71.8122C56.2159 71.494 56.3423 71.1887 56.5674 70.9637C56.7924 70.7387 57.0976 70.6122 57.4159 70.6122H62.7239C63.0075 70.6131 63.2816 70.7145 63.4976 70.8983C63.7136 71.0821 63.8576 71.3364 63.9039 71.6162C64.7039 77.0202 67.1039 79.7442 77.9559 79.7442C86.5999 79.7442 90.2839 77.7882 90.2839 73.2002C90.2839 70.5562 89.2399 68.5922 75.8039 67.2762C64.5719 66.1642 57.6279 63.6762 57.6279 54.7002C57.6279 46.4202 64.6079 41.4802 76.3079 41.4802C89.4559 41.4802 95.9639 46.0442 96.7879 55.8362C96.8005 55.9997 96.7794 56.164 96.726 56.3191C96.6727 56.4741 96.5881 56.6165 96.4775 56.7376C96.3669 56.8587 96.2327 56.9558 96.0831 57.023C95.9336 57.0902 95.7718 57.126 95.6079 57.1282H90.2639C89.9958 57.1245 89.7367 57.031 89.5279 56.8628C89.3191 56.6946 89.1726 56.4614 89.1119 56.2002C87.8359 50.5162 84.7119 48.7002 76.3119 48.7002C66.8719 48.7002 65.7759 51.9882 65.7759 54.4522C65.7759 57.4362 67.0719 58.3082 79.8159 59.9922C92.4279 61.6602 98.4199 64.0202 98.4199 72.8842C98.4199 81.8282 90.9639 86.9482 77.9599 86.9482C59.9799 86.9722 56.2159 78.7282 56.2159 71.8122V71.8122Z" fill="#83CD29"/>
</svg>
