<svg width="128" height="128" viewBox="0 0 128 128" fill="none" xmlns="http://www.w3.org/2000/svg">
<g clip-path="url(#clip0)">
<path d="M64 93.4596C94.9279 93.4596 120 80.2699 120 63.9996C120 47.7293 94.9279 34.5396 64 34.5396C33.0721 34.5396 8 47.7293 8 63.9996C8 80.2699 33.0721 93.4596 64 93.4596Z" fill="url(#paint0_radial)"/>
<path d="M64 91.2721C93.7196 91.2721 117.812 79.062 117.812 64.0001C117.812 48.9382 93.7196 36.7281 64 36.7281C34.2805 36.7281 10.188 48.9382 10.188 64.0001C10.188 79.062 34.2805 91.2721 64 91.2721Z" fill="#6280B6"/>
<path d="M74.9 72.7999L77.568 59.0639C77.9481 57.8884 78.0107 56.6332 77.7494 55.4257C77.4881 54.2181 76.9122 53.1012 76.08 52.1879C73.7574 50.5386 70.9133 49.7921 68.08 50.0879H63.468L64.792 43.2879C64.8162 43.1613 64.8121 43.0309 64.78 42.9061C64.7479 42.7812 64.6887 42.665 64.6066 42.5657C64.5245 42.4664 64.4214 42.3864 64.3048 42.3314C64.1882 42.2765 64.0609 42.248 63.932 42.2479H57.532C57.3288 42.2479 57.1319 42.3185 56.975 42.4476C56.8181 42.5768 56.711 42.7565 56.672 42.9559L53.836 57.5399C53.6178 55.9806 52.9554 54.5171 51.928 53.3239C50.7842 52.1784 49.4042 51.2961 47.8843 50.7386C46.3645 50.1811 44.7413 49.9617 43.128 50.0959H30.8C30.5968 50.0959 30.3999 50.1665 30.243 50.2956C30.0861 50.4248 29.979 50.6045 29.94 50.8039L24.204 80.3239C24.1799 80.4505 24.184 80.5809 24.2161 80.7058C24.2481 80.8306 24.3073 80.9468 24.3895 81.0462C24.4716 81.1455 24.5746 81.2255 24.6912 81.2804C24.8078 81.3353 24.9351 81.3638 25.064 81.3639H31.476C31.6792 81.364 31.8762 81.2934 32.0331 81.1642C32.19 81.0351 32.2971 80.8554 32.336 80.6559L33.724 73.5159H38.524C40.6433 73.5725 42.7588 73.3027 44.796 72.7159C46.5138 72.1476 48.0846 71.2065 49.396 69.9599C50.4707 68.981 51.3881 67.8423 52.116 66.5839L50.968 72.4839C50.9439 72.6105 50.948 72.7409 50.9801 72.8658C51.0121 72.9906 51.0713 73.1068 51.1535 73.2062C51.2356 73.3055 51.3386 73.3855 51.4552 73.4404C51.5718 73.4953 51.6991 73.5239 51.828 73.5239H58.228C58.4313 73.524 58.6282 73.4534 58.7851 73.3242C58.942 73.1951 59.0491 73.0154 59.088 72.8159L62.236 56.6119H66.612C68.476 56.6119 69.012 56.9839 69.172 57.1439C69.332 57.3039 69.572 57.8039 69.272 59.4199L66.732 72.4799C66.7079 72.6065 66.712 72.7369 66.7441 72.8618C66.7761 72.9866 66.8353 73.1028 66.9175 73.2022C66.9996 73.3015 67.1026 73.3815 67.2192 73.4364C67.3359 73.4913 67.4631 73.5198 67.592 73.5199H74.072C74.2714 73.5121 74.4622 73.4366 74.6127 73.3056C74.7633 73.1747 74.8647 72.9963 74.9 72.7999V72.7999ZM45.32 61.4639C45.1244 63.1432 44.3272 64.6949 43.076 65.8319C41.5043 66.8096 39.6614 67.2594 37.816 67.1159H34.968L37.028 56.5119H40.712C43.42 56.5119 44.508 57.0919 44.948 57.5759C45.2837 58.16 45.4905 58.8091 45.5547 59.4797C45.6188 60.1503 45.5388 60.8268 45.32 61.4639V61.4639Z" fill="white"/>
<path d="M102.184 53.3278C101.04 52.1822 99.6602 51.2999 98.1404 50.7424C96.6205 50.1849 94.9974 49.9656 93.3841 50.0998H81.0201C80.8168 50.0997 80.6199 50.1703 80.463 50.2995C80.3061 50.4286 80.199 50.6083 80.1601 50.8078L74.4241 80.3278C74.3999 80.4544 74.404 80.5848 74.4361 80.7096C74.4681 80.8345 74.5273 80.9507 74.6095 81.05C74.6916 81.1494 74.7947 81.2293 74.9113 81.2843C75.0279 81.3392 75.1552 81.3677 75.2841 81.3678H81.7161C81.9193 81.3678 82.1162 81.2972 82.2731 81.1681C82.43 81.0389 82.5371 80.8592 82.5761 80.6598L83.9641 73.5198H88.7641C90.8834 73.5764 92.9988 73.3065 95.0361 72.7198C96.7538 72.1514 98.3246 71.2103 99.6361 69.9638C101.882 67.9397 103.395 65.2296 103.94 62.2558C104.37 60.7344 104.436 59.133 104.131 57.5816C103.825 56.0303 103.159 54.5728 102.184 53.3278V53.3278ZM95.5161 61.4638C95.3204 63.1431 94.5233 64.6947 93.2721 65.8318C91.6965 66.8105 89.849 67.2591 88.0001 67.1118H85.1601L87.2201 56.5078H90.9041C93.6121 56.5078 94.7001 57.0878 95.1401 57.5718C95.4769 58.1561 95.6848 58.8057 95.7496 59.477C95.8145 60.1484 95.7349 60.8258 95.5161 61.4638V61.4638Z" fill="white"/>
<path d="M40.712 55.632C41.575 55.5233 42.4511 55.5869 43.2894 55.8189C44.1277 56.051 44.9117 56.447 45.596 56.984C46.0376 57.6638 46.3192 58.4349 46.4196 59.2393C46.5201 60.0437 46.4368 60.8604 46.176 61.628C45.9474 63.5179 45.0337 65.2584 43.608 66.52C41.8885 67.6275 39.856 68.1468 37.816 68H33.904L36.304 55.644L40.712 55.632ZM25.044 80.496H31.476L33 72.648H38.508C40.5354 72.7033 42.5592 72.4456 44.508 71.884C46.1074 71.3559 47.5694 70.4787 48.788 69.316C50.8974 67.4184 52.3182 64.8751 52.828 62.084C53.2317 60.696 53.3026 59.2325 53.035 57.812C52.7675 56.3915 52.1689 55.054 51.288 53.908C50.2258 52.8573 48.9471 52.051 47.5413 51.5453C46.1354 51.0396 44.6361 50.8467 43.148 50.98H30.8L25.044 80.496Z" fill="#000004"/>
<path d="M57.5479 43.1281H63.9479L62.3999 50.9761H68.0839C70.6945 50.7029 73.3173 51.3664 75.4839 52.8481C76.201 53.6632 76.6912 54.6525 76.9054 55.7169C77.1195 56.7812 77.05 57.8831 76.7039 58.9121L74.0359 72.6481H67.5599L70.0999 59.5881C70.2768 59.0896 70.3399 58.5579 70.2845 58.0318C70.2292 57.5058 70.0567 56.9988 69.7799 56.5481C68.8537 55.8846 67.7095 55.5985 66.5799 55.7481H61.4799L58.1919 72.6601H51.7919L57.5479 43.1281Z" fill="#000004"/>
<path d="M90.9081 55.632C91.7711 55.5233 92.6471 55.5869 93.4855 55.8189C94.3238 56.051 95.1078 56.447 95.7921 56.984C96.2336 57.6638 96.5153 58.4349 96.6157 59.2393C96.7162 60.0437 96.6329 60.8604 96.3721 61.628C96.1434 63.5179 95.2298 65.2584 93.8041 66.52C92.0813 67.63 90.0441 68.1495 88.0001 68H84.0881L86.4881 55.644L90.9081 55.632ZM75.2401 80.496H81.6721L83.1961 72.648H88.7041C90.7315 72.7033 92.7553 72.4456 94.7041 71.884C96.3035 71.3559 97.7654 70.4787 98.9841 69.316C101.093 67.4184 102.514 64.8751 103.024 62.084C103.428 60.696 103.499 59.2325 103.231 57.812C102.964 56.3915 102.365 55.054 101.484 53.908C100.422 52.8573 99.1432 52.051 97.7373 51.5453C96.3315 51.0396 94.8322 50.8467 93.3441 50.98H80.9761L75.2401 80.496Z" fill="#000004"/>
<g clip-path="url(#clip1)">
<path d="M7751.4 1264.2C7005.57 1268.41 6359.74 1447.53 5818.07 1714.24C5618.07 1318.41 5418.07 972.533 5384.78 714.242C5347.28 414.242 5301.44 230.867 5347.28 -127.425C5393.07 -485.8 5601.4 -994.134 5601.4 -1035.8C5597.19 -1073.3 5555.53 -1256.63 5126.4 -1260.8C4697.28 -1264.97 4326.4 -1177.47 4284.73 -1064.97C4243.07 -952.467 4159.74 -694.134 4105.57 -427.467C4030.57 -35.8002 3247.23 1351.7 2801.4 2080.87C2655.57 1797.53 2530.57 1547.53 2505.53 1347.49C2468.07 1047.53 2422.19 864.158 2468.07 505.866C2513.9 147.491 2722.23 -360.8 2722.23 -402.467C2718.07 -439.967 2676.4 -623.3 2247.28 -627.467C1818.07 -631.634 1447.28 -544.134 1405.61 -431.634C1363.94 -319.134 1318.11 -52.4669 1226.44 205.866C1138.9 464.2 97.234 2780.87 -173.599 3385.03C-311.099 3693.37 -431.891 3939.2 -519.432 4105.87C-606.932 4272.53 -523.599 4118.37 -531.932 4135.03C-606.932 4276.7 -648.599 4355.87 -648.599 4355.87V4360.08C-706.932 4464.24 -769.432 4564.2 -798.641 4564.2C-819.474 4564.2 -861.141 4285.03 -790.308 3901.74C-636.141 3097.53 -261.141 1843.41 -265.266 1797.57C-265.266 1776.74 -194.474 1555.87 -506.974 1443.41C-811.141 1330.91 -919.432 1518.41 -944.474 1518.41C-969.474 1518.41 -990.308 1585.07 -990.308 1585.07C-990.308 1585.07 -652.808 172.616 -1636.14 172.616C-2252.81 172.616 -3102.81 843.45 -3523.64 1455.95C-3790.31 1601.78 -4356.97 1910.07 -4956.97 2239.28C-5186.14 2364.28 -5423.64 2497.62 -5648.64 2618.45L-5694.43 2568.37C-6886.1 1297.53 -9090.27 397.533 -8998.6 -1310.8C-8965.27 -1931.63 -8748.6 -3569.13 -4765.22 -5552.47C-1502.72 -7177.47 1109.78 -6731.63 1563.9 -5739.97C2209.73 -4323.3 168.068 -1689.97 -3223.56 -1310.8C-4515.22 -1164.97 -5194.43 -1664.97 -5365.22 -1852.47C-5544.39 -2048.3 -5569.39 -2056.63 -5636.06 -2019.13C-5744.39 -1960.8 -5677.72 -1785.8 -5636.06 -1681.63C-5536.06 -1419.13 -5119.39 -952.467 -4411.06 -719.134C-3790.27 -514.967 -2273.56 -402.467 -440.224 -1110.8C1613.94 -1906.63 3218.11 -4114.97 2747.28 -5960.8C2268.11 -7839.97 -848.557 -8456.63 -3794.39 -7410.8C-5548.6 -6785.8 -7448.6 -5810.8 -8815.27 -4531.63C-10440.3 -3014.97 -10698.6 -1689.97 -10590.3 -1139.97C-10211.1 822.533 -7506.93 2101.7 -6423.6 3047.53C-6477.77 3076.66 -6527.77 3105.83 -6573.6 3130.87C-7115.27 3397.49 -9177.77 4476.7 -9694.43 5618.33C-10277.8 6909.99 -9602.77 7839.2 -9152.77 7964.2C-7761.1 8351.7 -6336.1 7655.87 -5565.27 6510.03C-4798.64 5364.2 -4890.27 3876.7 -5244.43 3197.53L-5256.97 3172.53L-4831.97 2922.53C-4556.93 2760.03 -4286.1 2610.03 -4048.64 2480.82C-4181.93 2843.32 -4277.81 3272.49 -4327.77 3897.49C-4386.1 4630.87 -4086.1 5580.83 -3690.27 5955.83C-3515.27 6118.28 -3306.93 6122.49 -3177.77 6122.49C-2719.43 6122.49 -2511.1 5743.28 -2281.93 5289.16C-1998.6 4734.99 -1748.6 4093.33 -1748.6 4093.33C-1748.6 4093.33 -2061.1 5830.83 -1206.93 5830.83C-894.432 5830.83 -581.932 5426.66 -440.266 5218.33V5222.49C-440.266 5222.49 -431.932 5209.99 -415.266 5180.83C-397.783 5154.98 -381.108 5128.59 -365.266 5101.7V5093.37C-240.266 4876.7 38.9009 4380.87 455.568 3560.03C993.026 2501.7 1509.73 1176.7 1509.73 1176.7C1509.73 1176.7 1559.73 1501.7 1713.9 2035.03C1805.53 2351.74 2005.53 2697.53 2159.69 3035.03C2034.69 3210.03 1959.69 3310.08 1959.69 3310.08L1963.86 3314.24C1863.9 3447.58 1751.36 3589.28 1634.73 3730.91C1209.73 4239.24 701.401 4818.45 634.734 4985.12C555.567 5180.91 572.234 5326.74 726.401 5443.45C838.901 5526.78 1038.9 5543.41 1251.4 5526.78C1634.73 5501.74 1901.4 5405.95 2034.73 5347.58C2243.07 5272.58 2480.57 5160.08 2709.73 4993.41C3126.4 4685.12 3380.57 4247.62 3355.57 3664.28C3343.07 3343.45 3238.9 3026.78 3109.74 2726.78C3147.24 2672.62 3184.78 2618.41 3222.23 2560.12C3880.57 1597.57 4388.9 539.283 4388.9 539.283C4388.9 539.283 4438.9 864.283 4593.07 1397.62C4672.19 1668.45 4830.57 1964.32 4972.23 2255.99C4355.57 2760.16 3968.07 3343.49 3834.73 3726.83C3588.9 4435.16 3780.57 4755.99 4143.07 4830.99C4305.53 4864.33 4538.9 4789.33 4713.86 4714.33C4930.53 4643.49 5193.03 4522.62 5434.73 4343.49C5851.4 4035.16 6251.4 3605.99 6230.57 3026.83C6218.07 2760.16 6147.23 2497.66 6051.4 2247.66C6576.4 2030.99 7255.53 1905.99 8118.07 2010.16C9972.24 2226.83 10338.9 3385.16 10268.1 3868.49C10197.3 4351.87 9809.78 4618.49 9680.57 4701.83C9551.4 4780.99 9509.74 4810.2 9522.24 4868.49C9538.9 4956.03 9597.24 4951.83 9709.74 4935.2C9863.9 4910.16 10684.7 4539.37 10718.1 3647.74C10768.1 2501.74 9680.57 1251.74 7751.4 1264.2V1264.2ZM-6548.6 6085.03C-7161.1 6755.87 -8023.6 7010.03 -8390.27 6793.37C-8786.1 6564.2 -8631.98 5576.7 -7877.77 4864.2C-7419.43 4430.87 -6823.6 4030.87 -6431.93 3785.03C-6344.43 3730.87 -6211.1 3651.74 -6052.77 3555.87C-6027.77 3539.24 -6011.1 3530.87 -6011.1 3530.87C-5981.93 3514.2 -5948.6 3493.37 -5915.27 3472.53C-5636.1 4489.2 -5902.77 5380.87 -6548.6 6085.03V6085.03ZM-2069.43 3039.2C-2281.93 3560.03 -2731.93 4897.53 -3002.77 4822.53C-3236.14 4760.03 -3377.77 3747.53 -3048.64 2747.53C-2881.97 2243.33 -2527.81 1643.37 -2319.47 1409.99C-1981.93 1034.99 -1615.31 909.991 -1523.6 1064.16C-1415.27 1264.2 -1936.1 2714.2 -2069.43 3039.2ZM1626.4 4805.87C1534.73 4851.74 1451.4 4885.03 1413.9 4860.08C1384.73 4843.41 1451.36 4780.91 1451.36 4780.91C1451.36 4780.91 1913.86 4285.08 2097.19 4055.91C2201.36 3922.62 2326.36 3768.45 2459.69 3593.41V3643.41C2459.73 4243.37 1884.73 4643.37 1626.4 4805.87ZM4476.36 4155.87C4409.69 4105.87 4418.07 3951.7 4643.03 3468.37C4730.57 3276.7 4930.53 2955.87 5276.36 2651.7C5318.03 2776.7 5343.07 2897.49 5338.86 3010.03C5334.74 3760.03 4801.4 4039.2 4476.36 4155.87Z" fill="#CF649A"/>
</g>
</g>
<defs>
<radialGradient id="paint0_radial" cx="0" cy="0" r="1" gradientUnits="userSpaceOnUse" gradientTransform="translate(41.624 44.8996) scale(73.536)">
<stop stop-color="white"/>
<stop offset="0.5" stop-color="#4C6B96"/>
<stop offset="1" stop-color="#231F20"/>
</radialGradient>
<clipPath id="clip0">
<rect width="128" height="128" fill="white"/>
</clipPath>
<clipPath id="clip1">
<rect width="21333.3" height="16000" fill="white" transform="translate(-10606.9 -7927.47)"/>
</clipPath>
</defs>
</svg>
