<svg width="128" height="128" viewBox="0 0 128 128" fill="none" xmlns="http://www.w3.org/2000/svg">
<path d="M64.684 74.7998C62.76 75.6838 60.652 76.8358 56.432 79.1518C54.832 80.0518 53.16 80.9518 51.604 81.7998C51.496 81.6918 51.384 81.5558 51.276 81.4438C42.928 72.5238 27.488 66.2238 28.144 54.2438C28.388 49.8798 29.888 38.4238 57.796 24.5118C80.764 13.1918 99.04 16.3278 102.196 23.2838C106.732 33.1998 92.4 51.6518 68.68 54.3278C66.0548 54.8603 63.3434 54.796 60.7464 54.1397C58.1493 53.4833 55.733 52.2517 53.676 50.5358C52.42 49.1718 52.232 49.0918 51.768 49.3638C51.004 49.7638 51.496 50.9998 51.768 51.7078C52.6728 53.346 53.8969 54.7862 55.3678 55.9431C56.8388 57.1001 58.5268 57.9504 60.332 58.4438C69.6664 60.4614 79.3987 59.4974 88.156 55.6878C102.532 50.1238 113.756 34.6558 110.468 21.6878C107.168 8.53982 85.344 4.20382 64.696 11.5398C51.7651 15.8974 39.8181 22.7571 29.536 31.7278C18.16 42.3678 16.36 51.6158 17.096 55.4878C19.744 69.2358 38.696 78.1838 46.296 84.8118C45.896 85.0318 45.56 85.2118 45.26 85.3838C41.468 87.2678 27.012 94.8238 23.408 102.816C19.316 111.872 24.064 118.364 27.2 119.236C31.9259 120.368 36.8874 119.996 41.3917 118.171C45.8959 116.347 49.7179 113.162 52.324 109.06C54.5371 105.659 55.8961 101.773 56.2854 97.7339C56.6747 93.6947 56.0828 89.6212 54.56 85.8598C55.4584 85.1432 56.4166 84.5049 57.424 83.9518C59.36 82.8078 61.204 81.6798 62.84 80.8078C68.4415 78.1841 74.5545 76.8331 80.74 76.8518C93.724 78.3798 96.288 86.4798 95.796 89.8918C95.5658 91.1024 95.079 92.2496 94.3684 93.2563C93.6577 94.2629 92.7396 95.1057 91.676 95.7278C90.776 96.2998 90.476 96.4918 90.556 96.8998C90.664 97.4998 91.1 97.4718 91.864 97.3638C93.8148 96.7473 95.5334 95.5551 96.7941 93.9438C98.0549 92.3326 98.7987 90.3776 98.928 88.3358C99.328 80.3358 91.7 71.5598 78.196 71.6398C74.1525 71.6468 70.1494 72.4444 66.412 73.9878C65.812 74.2358 65.2293 74.5025 64.664 74.7878L64.684 74.7998ZM45.384 106.156C41.072 110.848 35.072 112.62 32.48 111.12C29.68 109.52 30.788 102.58 36.08 97.6158C39.2142 94.7919 42.6019 92.2625 46.2 90.0598C46.828 89.6598 47.756 89.1318 48.872 88.4598L49.172 88.2958L49.828 87.8958C50.7718 91.0603 50.8577 94.4187 50.0768 97.6272C49.296 100.836 47.6764 103.779 45.384 106.156V106.156Z" fill="#CD6799"/>
</svg>
